<svg width="256" height="327" viewBox="0 0 256 327" fill="none" xmlns="http://www.w3.org/2000/svg">
<path fill-rule="evenodd" clip-rule="evenodd" d="M216.388 39.6116C217.279 40.5022 218.153 41.4029 219.011 42.3133C212.314 49.2515 204.287 54.5938 193.67 57.2449C169.187 63.3585 160.631 82.4292 152.283 101.037C151.681 102.38 151.08 103.72 150.473 105.053C145.891 115.131 141.019 124.947 133.526 133.23C126.099 141.439 115.99 148.252 100.763 152.054C75.0225 158.482 62.5293 178.257 50.7949 196.831L50.5707 197.186C46.6045 203.464 42.7137 209.598 38.444 215.205C-9.20074 166.302 -8.81152 88.0348 39.6117 39.6116C88.4272 -9.20387 167.573 -9.20388 216.388 39.6116ZM86.75 71.916L74.5479 47.1016H53.9888L74.8555 84.1182L53.4248 121.75H74.189L86.75 96.4741L99.311 121.75H120.024L98.6445 84.1182L119.46 47.1016H98.9522L86.75 71.916Z" fill="url(#paint0_linear_21_168)"/>
<path d="M195.184 63.3087C206.988 60.3612 215.91 54.417 223.193 46.9753C228.787 53.5337 233.594 60.5337 237.614 67.851C236.756 69.2672 235.869 70.6517 234.944 71.9991C228.747 81.0285 221.109 87.9975 209.843 91.0427C184.163 97.9839 172.537 118.982 161.663 138.621L161.432 139.038C150.281 159.177 139.797 177.827 116.859 184.027L116.749 184.057L116.642 184.094C99.7876 189.993 88.8 198.344 81.1067 207.857C73.716 216.996 69.4907 227.063 65.9537 236.55C57.8167 231.892 50.0915 226.246 42.9532 219.61C47.59 213.606 51.6537 207.174 55.6302 200.88L55.8545 200.525C67.8394 181.555 79.1363 163.896 102.277 158.118C118.698 154.018 129.896 146.559 138.161 137.423C146.358 128.361 151.561 117.759 156.163 107.64C156.715 106.426 157.258 105.221 157.797 104.026L157.805 104.009C166.395 84.9563 173.74 68.6634 195.184 63.3087Z" fill="url(#paint1_linear_21_168)"/>
<path d="M240.097 75.5355C240.375 75.1311 240.649 74.7232 240.921 74.312C245.294 83.5103 248.48 93.1324 250.478 102.948C246.036 106.115 241.359 109.151 236.605 112.229L236.229 112.472C217.508 124.589 197.634 137.452 190.582 162.244C187.476 173.162 180.61 180.663 171.753 186.782C164.789 191.592 156.822 195.411 148.594 199.356L148.589 199.358L148.578 199.363L148.576 199.364L148.565 199.37C146.178 200.514 143.769 201.669 141.356 202.861C130.807 208.077 120.299 213.978 112.661 222.764C106.514 229.833 102.337 238.633 101.241 250.118C91.0174 247.888 81.0193 244.363 71.5086 239.544C75.0756 229.909 79.043 220.348 85.9664 211.787C92.8627 203.26 102.825 195.57 118.601 190.03C144.203 183.058 155.811 162.093 166.67 142.482L166.9 142.065C178.052 121.927 188.536 103.276 211.474 97.0761C224.608 93.526 233.356 85.3579 240.097 75.5355Z" fill="url(#paint2_linear_21_168)"/>
<path d="M240.377 117.232C244.132 114.801 247.934 112.34 251.67 109.759C252.574 115.926 253.018 122.148 252.999 128.368C238.463 138.128 229.91 153.575 221.778 168.262L221.547 168.678C210.396 188.817 199.911 207.468 176.973 213.668C163.762 217.239 155.434 225.667 149.357 235.822C146.311 240.913 143.777 246.545 141.453 252.278C130.126 253.497 118.664 253.172 107.409 251.302C108.299 240.75 112.033 233.012 117.377 226.864C124.133 219.094 133.639 213.649 144.126 208.464C146.375 207.352 148.677 206.25 150.999 205.137L151.007 205.133L151.013 205.131L151.016 205.129C159.321 201.151 167.894 197.044 175.306 191.924C184.93 185.275 192.969 176.694 196.593 163.954C202.954 141.593 220.846 129.874 240.001 117.475L240.377 117.232Z" fill="url(#paint3_linear_21_168)"/>
<path d="M227.015 171.706C234.543 158.111 241.767 145.194 252.724 136.328C250.789 165.488 238.677 194.1 216.388 216.388C197.245 235.531 173.438 247.167 148.625 251.297C150.461 246.984 152.431 242.858 154.721 239.031C160.247 229.795 167.416 222.725 178.604 219.701C204.284 212.76 215.91 191.762 226.784 172.123L227.015 171.706Z" fill="url(#paint4_linear_21_168)"/>
<path d="M29.6338 300V266.4H43.7938C47.3778 266.4 50.5298 267.104 53.2498 268.512C56.0018 269.92 58.1298 271.888 59.6338 274.416C61.1698 276.944 61.9378 279.872 61.9378 283.2C61.9378 286.528 61.1698 289.456 59.6338 291.984C58.1298 294.512 56.0018 296.48 53.2498 297.888C50.5298 299.296 47.3778 300 43.7938 300H29.6338ZM34.4338 295.824H43.5058C46.2898 295.824 48.6898 295.296 50.7058 294.24C52.7538 293.184 54.3378 291.712 55.4578 289.824C56.5778 287.904 57.1378 285.696 57.1378 283.2C57.1378 280.672 56.5778 278.464 55.4578 276.576C54.3378 274.688 52.7538 273.216 50.7058 272.16C48.6898 271.104 46.2898 270.576 43.5058 270.576H34.4338V295.824ZM79.514 300.288C76.954 300.288 74.682 299.728 72.698 298.608C70.714 297.488 69.146 295.952 67.994 294C66.842 292.016 66.266 289.776 66.266 287.28C66.266 284.752 66.842 282.512 67.994 280.56C69.146 278.608 70.714 277.088 72.698 276C74.682 274.88 76.954 274.32 79.514 274.32C82.042 274.32 84.298 274.88 86.282 276C88.298 277.088 89.866 278.608 90.986 280.56C92.138 282.48 92.714 284.72 92.714 287.28C92.714 289.808 92.138 292.048 90.986 294C89.866 295.952 88.298 297.488 86.282 298.608C84.298 299.728 82.042 300.288 79.514 300.288ZM79.514 296.256C81.146 296.256 82.602 295.888 83.882 295.152C85.194 294.416 86.218 293.376 86.954 292.032C87.69 290.656 88.058 289.072 88.058 287.28C88.058 285.456 87.69 283.888 86.954 282.576C86.218 281.232 85.194 280.192 83.882 279.456C82.602 278.72 81.146 278.352 79.514 278.352C77.882 278.352 76.426 278.72 75.146 279.456C73.866 280.192 72.842 281.232 72.074 282.576C71.306 283.888 70.922 285.456 70.922 287.28C70.922 289.072 71.306 290.656 72.074 292.032C72.842 293.376 73.866 294.416 75.146 295.152C76.426 295.888 77.882 296.256 79.514 296.256ZM107.823 300.288C105.263 300.288 103.279 299.6 101.871 298.224C100.463 296.848 99.7588 294.88 99.7588 292.32V268.992H104.367V292.128C104.367 293.504 104.703 294.56 105.375 295.296C106.079 296.032 107.071 296.4 108.351 296.4C109.791 296.4 110.991 296 111.951 295.2L113.391 298.512C112.687 299.12 111.839 299.568 110.847 299.856C109.887 300.144 108.879 300.288 107.823 300.288ZM95.4388 278.352V274.56H111.663V278.352H95.4388ZM123.954 282.288H141.282V286.416H123.954V282.288ZM124.434 300H119.634V266.4H143.346V270.576H124.434V300ZM149.431 300V264.384H154.039V300H149.431ZM173.733 300.288C171.173 300.288 168.901 299.728 166.917 298.608C164.933 297.488 163.365 295.952 162.213 294C161.061 292.016 160.485 289.776 160.485 287.28C160.485 284.752 161.061 282.512 162.213 280.56C163.365 278.608 164.933 277.088 166.917 276C168.901 274.88 171.173 274.32 173.733 274.32C176.261 274.32 178.517 274.88 180.501 276C182.517 277.088 184.085 278.608 185.205 280.56C186.357 282.48 186.933 284.72 186.933 287.28C186.933 289.808 186.357 292.048 185.205 294C184.085 295.952 182.517 297.488 180.501 298.608C178.517 299.728 176.261 300.288 173.733 300.288ZM173.733 296.256C175.365 296.256 176.821 295.888 178.101 295.152C179.413 294.416 180.437 293.376 181.173 292.032C181.909 290.656 182.277 289.072 182.277 287.28C182.277 285.456 181.909 283.888 181.173 282.576C180.437 281.232 179.413 280.192 178.101 279.456C176.821 278.72 175.365 278.352 173.733 278.352C172.101 278.352 170.645 278.72 169.365 279.456C168.085 280.192 167.061 281.232 166.293 282.576C165.525 283.888 165.141 285.456 165.141 287.28C165.141 289.072 165.525 290.656 166.293 292.032C167.061 293.376 168.085 294.416 169.365 295.152C170.645 295.888 172.101 296.256 173.733 296.256ZM197.978 300L188.522 274.56H192.89L201.29 297.6H199.226L207.962 274.56H211.85L220.394 297.6H218.378L226.97 274.56H231.098L221.594 300H217.178L209.162 278.976H210.506L202.394 300H197.978Z" fill="white"/>
<path d="M55.3192 320V308.8H59.9912C61.1965 308.8 62.1405 309.045 62.8232 309.536C63.5059 310.027 63.8472 310.736 63.8472 311.664C63.8472 312.272 63.7032 312.784 63.4152 313.2C63.1272 313.616 62.7272 313.931 62.2152 314.144C61.7139 314.347 61.1485 314.448 60.5192 314.448L60.8072 314.128C61.5752 314.128 62.2312 314.24 62.7752 314.464C63.3192 314.688 63.7299 315.013 64.0072 315.44C64.2952 315.867 64.4392 316.4 64.4392 317.04C64.4392 317.979 64.0979 318.709 63.4152 319.232C62.7325 319.744 61.6979 320 60.3112 320H55.3192ZM56.1352 319.296H60.3112C61.3885 319.296 62.2099 319.115 62.7752 318.752C63.3405 318.379 63.6232 317.787 63.6232 316.976C63.6232 316.176 63.3405 315.595 62.7752 315.232C62.2099 314.859 61.3885 314.672 60.3112 314.672H56.0392V313.968H59.9592C60.9299 313.968 61.6819 313.781 62.2152 313.408C62.7485 313.035 63.0152 312.475 63.0152 311.728C63.0152 310.992 62.7485 310.437 62.2152 310.064C61.6819 309.691 60.9299 309.504 59.9592 309.504H56.1352V319.296ZM66.9024 323.168C66.5184 323.168 66.1558 323.104 65.8144 322.976C65.4838 322.848 65.2011 322.661 64.9664 322.416L65.3664 321.808C65.5798 322.032 65.8091 322.197 66.0544 322.304C66.3104 322.411 66.5984 322.464 66.9184 322.464C67.3024 322.464 67.6384 322.357 67.9264 322.144C68.2251 321.931 68.5024 321.541 68.7584 320.976L69.3344 319.696L69.4464 319.552L72.9824 311.648H73.7984L69.5104 321.136C69.2864 321.648 69.0411 322.048 68.7744 322.336C68.5184 322.635 68.2358 322.848 67.9264 322.976C67.6171 323.104 67.2758 323.168 66.9024 323.168ZM69.3184 320.208L65.4464 311.648H66.2944L69.8144 319.504L69.3184 320.208ZM84.6649 320.08C83.8329 320.08 83.0596 319.941 82.3449 319.664C81.6409 319.376 81.0223 318.976 80.4889 318.464C79.9663 317.941 79.5609 317.339 79.2729 316.656C78.9849 315.963 78.8409 315.211 78.8409 314.4C78.8409 313.589 78.9849 312.843 79.2729 312.16C79.5609 311.467 79.9663 310.864 80.4889 310.352C81.0223 309.829 81.6409 309.429 82.3449 309.152C83.0596 308.864 83.8329 308.72 84.6649 308.72C85.4969 308.72 86.2649 308.864 86.9689 309.152C87.6836 309.429 88.3023 309.824 88.8249 310.336C89.3476 310.848 89.7529 311.451 90.0409 312.144C90.3396 312.827 90.4889 313.579 90.4889 314.4C90.4889 315.221 90.3396 315.979 90.0409 316.672C89.7529 317.355 89.3476 317.952 88.8249 318.464C88.3023 318.976 87.6836 319.376 86.9689 319.664C86.2649 319.941 85.4969 320.08 84.6649 320.08ZM84.6649 319.328C85.3796 319.328 86.0409 319.205 86.6489 318.96C87.2569 318.715 87.7849 318.368 88.2329 317.92C88.6809 317.472 89.0276 316.949 89.2729 316.352C89.5289 315.755 89.6569 315.104 89.6569 314.4C89.6569 313.685 89.5289 313.035 89.2729 312.448C89.0276 311.851 88.6809 311.328 88.2329 310.88C87.7849 310.432 87.2569 310.085 86.6489 309.84C86.0409 309.595 85.3796 309.472 84.6649 309.472C83.9503 309.472 83.2889 309.595 82.6809 309.84C82.0729 310.085 81.5396 310.432 81.0809 310.88C80.6329 311.328 80.2809 311.851 80.0249 312.448C79.7796 313.035 79.6569 313.685 79.6569 314.4C79.6569 315.104 79.7796 315.755 80.0249 316.352C80.2809 316.949 80.6329 317.472 81.0809 317.92C81.5396 318.368 82.0729 318.715 82.6809 318.96C83.2889 319.205 83.9503 319.328 84.6649 319.328ZM97.2552 320.064C96.5192 320.064 95.8525 319.893 95.2552 319.552C94.6685 319.211 94.1992 318.725 93.8472 318.096C93.5059 317.456 93.3352 316.699 93.3352 315.824C93.3352 314.949 93.5059 314.197 93.8472 313.568C94.1992 312.928 94.6685 312.437 95.2552 312.096C95.8525 311.755 96.5192 311.584 97.2552 311.584C98.0445 311.584 98.7485 311.765 99.3672 312.128C99.9965 312.48 100.487 312.976 100.839 313.616C101.202 314.256 101.383 314.992 101.383 315.824C101.383 316.656 101.202 317.392 100.839 318.032C100.487 318.672 99.9965 319.173 99.3672 319.536C98.7485 319.888 98.0445 320.064 97.2552 320.064ZM93.0632 323.104V311.648H93.8312V314.384L93.7032 315.84L93.8632 317.296V323.104H93.0632ZM97.2072 319.344C97.8472 319.344 98.4232 319.2 98.9352 318.912C99.4472 318.613 99.8472 318.197 100.135 317.664C100.434 317.131 100.583 316.517 100.583 315.824C100.583 315.12 100.434 314.507 100.135 313.984C99.8472 313.451 99.4472 313.04 98.9352 312.752C98.4232 312.453 97.8472 312.304 97.2072 312.304C96.5672 312.304 95.9912 312.453 95.4792 312.752C94.9779 313.04 94.5779 313.451 94.2792 313.984C93.9912 314.507 93.8472 315.12 93.8472 315.824C93.8472 316.517 93.9912 317.131 94.2792 317.664C94.5779 318.197 94.9779 318.613 95.4792 318.912C95.9912 319.2 96.5672 319.344 97.2072 319.344ZM107.252 320.064C106.409 320.064 105.663 319.883 105.012 319.52C104.372 319.157 103.865 318.656 103.492 318.016C103.129 317.376 102.948 316.645 102.948 315.824C102.948 314.992 103.119 314.261 103.46 313.632C103.812 312.992 104.292 312.491 104.9 312.128C105.508 311.765 106.191 311.584 106.948 311.584C107.705 311.584 108.383 311.76 108.98 312.112C109.588 312.464 110.063 312.96 110.404 313.6C110.756 314.229 110.932 314.96 110.932 315.792C110.932 315.824 110.927 315.861 110.916 315.904C110.916 315.936 110.916 315.973 110.916 316.016H103.54V315.392H110.484L110.164 315.696C110.175 315.045 110.036 314.464 109.748 313.952C109.471 313.429 109.092 313.024 108.612 312.736C108.132 312.437 107.577 312.288 106.948 312.288C106.329 312.288 105.775 312.437 105.284 312.736C104.804 313.024 104.425 313.429 104.148 313.952C103.871 314.464 103.732 315.051 103.732 315.712V315.856C103.732 316.539 103.881 317.147 104.18 317.68C104.489 318.203 104.911 318.613 105.444 318.912C105.977 319.2 106.585 319.344 107.268 319.344C107.801 319.344 108.297 319.248 108.756 319.056C109.225 318.864 109.62 318.571 109.94 318.176L110.404 318.704C110.041 319.152 109.583 319.493 109.028 319.728C108.484 319.952 107.892 320.064 107.252 320.064ZM117.487 311.584C118.17 311.584 118.762 311.717 119.263 311.984C119.775 312.24 120.17 312.635 120.447 313.168C120.735 313.691 120.879 314.341 120.879 315.12V320H120.079V315.184C120.079 314.245 119.839 313.531 119.359 313.04C118.89 312.549 118.228 312.304 117.375 312.304C116.724 312.304 116.159 312.437 115.679 312.704C115.199 312.971 114.831 313.344 114.575 313.824C114.33 314.304 114.207 314.88 114.207 315.552V320H113.407V311.648H114.175V313.968L114.063 313.712C114.319 313.051 114.74 312.533 115.327 312.16C115.914 311.776 116.634 311.584 117.487 311.584ZM128.538 320V308.8H129.226L134.426 317.776H134.058L139.242 308.8H139.914L139.93 320H139.13L139.114 310.032H139.338L134.426 318.512H134.026L129.098 310.032H129.338V320H128.538ZM148.843 320V318.096L148.811 317.808V314.672C148.811 313.893 148.597 313.301 148.171 312.896C147.755 312.491 147.141 312.288 146.331 312.288C145.755 312.288 145.216 312.389 144.715 312.592C144.224 312.784 143.803 313.035 143.451 313.344L143.051 312.768C143.467 312.395 143.968 312.107 144.555 311.904C145.141 311.691 145.755 311.584 146.395 311.584C147.429 311.584 148.224 311.845 148.779 312.368C149.333 312.891 149.611 313.669 149.611 314.704V320H148.843ZM145.835 320.064C145.216 320.064 144.677 319.968 144.219 319.776C143.771 319.573 143.424 319.291 143.179 318.928C142.944 318.565 142.827 318.149 142.827 317.68C142.827 317.253 142.923 316.869 143.115 316.528C143.317 316.176 143.648 315.893 144.107 315.68C144.565 315.456 145.179 315.344 145.947 315.344H149.019V315.968H145.963C145.099 315.968 144.491 316.128 144.139 316.448C143.797 316.768 143.627 317.168 143.627 317.648C143.627 318.181 143.829 318.608 144.235 318.928C144.64 319.248 145.211 319.408 145.947 319.408C146.651 319.408 147.243 319.248 147.723 318.928C148.213 318.608 148.576 318.144 148.811 317.536L149.035 318.08C148.811 318.688 148.427 319.173 147.883 319.536C147.349 319.888 146.667 320.064 145.835 320.064ZM152.907 320V311.648H153.675V313.936L153.595 313.68C153.83 313.008 154.224 312.491 154.779 312.128C155.334 311.765 156.027 311.584 156.859 311.584V312.368C156.827 312.368 156.795 312.368 156.763 312.368C156.731 312.357 156.699 312.352 156.667 312.352C155.739 312.352 155.014 312.645 154.491 313.232C153.968 313.808 153.707 314.613 153.707 315.648V320H152.907ZM162.297 320.064C161.486 320.064 160.761 319.883 160.121 319.52C159.492 319.157 158.99 318.656 158.617 318.016C158.254 317.376 158.073 316.645 158.073 315.824C158.073 314.992 158.254 314.256 158.617 313.616C158.99 312.976 159.492 312.48 160.121 312.128C160.761 311.765 161.486 311.584 162.297 311.584C162.969 311.584 163.577 311.712 164.121 311.968C164.676 312.224 165.124 312.608 165.465 313.12L164.873 313.552C164.574 313.125 164.201 312.811 163.753 312.608C163.305 312.405 162.82 312.304 162.297 312.304C161.646 312.304 161.06 312.453 160.537 312.752C160.025 313.04 159.62 313.451 159.321 313.984C159.033 314.507 158.889 315.12 158.889 315.824C158.889 316.528 159.033 317.147 159.321 317.68C159.62 318.203 160.025 318.613 160.537 318.912C161.06 319.2 161.646 319.344 162.297 319.344C162.82 319.344 163.305 319.243 163.753 319.04C164.201 318.837 164.574 318.523 164.873 318.096L165.465 318.528C165.124 319.04 164.676 319.424 164.121 319.68C163.577 319.936 162.969 320.064 162.297 320.064ZM171.799 311.584C172.482 311.584 173.074 311.717 173.575 311.984C174.087 312.24 174.482 312.635 174.759 313.168C175.047 313.691 175.191 314.341 175.191 315.12V320H174.391V315.184C174.391 314.245 174.151 313.531 173.671 313.04C173.202 312.549 172.541 312.304 171.687 312.304C171.037 312.304 170.471 312.437 169.991 312.704C169.511 312.971 169.143 313.344 168.887 313.824C168.642 314.304 168.519 314.88 168.519 315.552V320H167.719V308.128H168.519V313.968L168.375 313.712C168.631 313.051 169.053 312.533 169.639 312.16C170.226 311.776 170.946 311.584 171.799 311.584ZM178.485 320V311.648H179.285V320H178.485ZM178.885 309.616C178.704 309.616 178.549 309.552 178.421 309.424C178.293 309.296 178.229 309.147 178.229 308.976C178.229 308.795 178.293 308.64 178.421 308.512C178.549 308.384 178.704 308.32 178.885 308.32C179.077 308.32 179.232 308.384 179.349 308.512C179.477 308.629 179.541 308.779 179.541 308.96C179.541 309.141 179.477 309.296 179.349 309.424C179.232 309.552 179.077 309.616 178.885 309.616ZM186.737 311.584C187.42 311.584 188.012 311.717 188.513 311.984C189.025 312.24 189.42 312.635 189.697 313.168C189.985 313.691 190.129 314.341 190.129 315.12V320H189.329V315.184C189.329 314.245 189.089 313.531 188.609 313.04C188.14 312.549 187.478 312.304 186.625 312.304C185.974 312.304 185.409 312.437 184.929 312.704C184.449 312.971 184.081 313.344 183.825 313.824C183.58 314.304 183.457 314.88 183.457 315.552V320H182.657V311.648H183.425V313.968L183.313 313.712C183.569 313.051 183.99 312.533 184.577 312.16C185.164 311.776 185.884 311.584 186.737 311.584ZM196.895 323.168C196.137 323.168 195.417 323.051 194.735 322.816C194.052 322.581 193.497 322.256 193.071 321.84L193.503 321.232C193.919 321.616 194.415 321.915 194.991 322.128C195.577 322.341 196.207 322.448 196.879 322.448C197.999 322.448 198.82 322.187 199.343 321.664C199.876 321.141 200.143 320.32 200.143 319.2V316.88L200.303 315.632L200.175 314.384V311.648H200.943V319.104C200.943 320.501 200.601 321.525 199.919 322.176C199.247 322.837 198.239 323.168 196.895 323.168ZM196.671 319.696C195.881 319.696 195.172 319.525 194.543 319.184C193.924 318.832 193.428 318.352 193.055 317.744C192.692 317.125 192.511 316.421 192.511 315.632C192.511 314.832 192.692 314.128 193.055 313.52C193.428 312.912 193.924 312.437 194.543 312.096C195.172 311.755 195.881 311.584 196.671 311.584C197.428 311.584 198.105 311.749 198.703 312.08C199.311 312.4 199.791 312.864 200.143 313.472C200.495 314.069 200.671 314.789 200.671 315.632C200.671 316.464 200.495 317.184 200.143 317.792C199.791 318.4 199.311 318.869 198.703 319.2C198.105 319.531 197.428 319.696 196.671 319.696ZM196.735 318.976C197.407 318.976 197.999 318.837 198.511 318.56C199.023 318.272 199.423 317.877 199.711 317.376C200.009 316.864 200.159 316.283 200.159 315.632C200.159 314.971 200.009 314.389 199.711 313.888C199.423 313.387 199.023 312.997 198.511 312.72C197.999 312.443 197.407 312.304 196.735 312.304C196.084 312.304 195.497 312.443 194.975 312.72C194.463 312.997 194.057 313.387 193.759 313.888C193.471 314.389 193.327 314.971 193.327 315.632C193.327 316.283 193.471 316.864 193.759 317.376C194.057 317.877 194.463 318.272 194.975 318.56C195.497 318.837 196.084 318.976 196.735 318.976Z" fill="white"/>
<defs>
<linearGradient id="paint0_linear_21_168" x1="39.6117" y1="39.6117" x2="216.388" y2="216.388" gradientUnits="userSpaceOnUse">
<stop stop-color="#1A8AAD"/>
<stop offset="1" stop-color="#082E3A"/>
</linearGradient>
<linearGradient id="paint1_linear_21_168" x1="39.6117" y1="39.6117" x2="216.388" y2="216.388" gradientUnits="userSpaceOnUse">
<stop stop-color="#1A8AAD"/>
<stop offset="1" stop-color="#082E3A"/>
</linearGradient>
<linearGradient id="paint2_linear_21_168" x1="39.6117" y1="39.6117" x2="216.388" y2="216.388" gradientUnits="userSpaceOnUse">
<stop stop-color="#1A8AAD"/>
<stop offset="1" stop-color="#082E3A"/>
</linearGradient>
<linearGradient id="paint3_linear_21_168" x1="39.6117" y1="39.6117" x2="216.388" y2="216.388" gradientUnits="userSpaceOnUse">
<stop stop-color="#1A8AAD"/>
<stop offset="1" stop-color="#082E3A"/>
</linearGradient>
<linearGradient id="paint4_linear_21_168" x1="39.6117" y1="39.6117" x2="216.388" y2="216.388" gradientUnits="userSpaceOnUse">
<stop stop-color="#1A8AAD"/>
<stop offset="1" stop-color="#082E3A"/>
</linearGradient>
</defs>
</svg>
